<mxfile host="65bd71144e">
    <diagram name="Page-1" id="9xXpQoKFAjOWmioz_WNq">
        <mxGraphModel dx="1841" dy="601" grid="1" gridSize="10" guides="1" tooltips="1" connect="0" arrows="1" fold="1" page="1" pageScale="1" pageWidth="827" pageHeight="583" background="none" math="0" shadow="0">
            <root>
                <mxCell id="0"/>
                <mxCell id="1" parent="0"/>
                <mxCell id="0HHs3alpBDfe58Pw6IrG-2" style="edgeStyle=orthogonalEdgeStyle;rounded=0;orthogonalLoop=1;jettySize=auto;html=1;exitX=0.25;exitY=0;exitDx=0;exitDy=0;entryX=0.75;entryY=0;entryDx=0;entryDy=0;fillColor=#fad7ac;strokeColor=#b46504;backgroundOutline=0;" parent="1" source="vDj8au7zf55BE4AIelzE-1" target="vDj8au7zf55BE4AIelzE-4" edge="1">
                    <mxGeometry relative="1" as="geometry"/>
                </mxCell>
                <mxCell id="vDj8au7zf55BE4AIelzE-1" value="ENGINE" style="rounded=0;whiteSpace=wrap;html=1;backgroundOutline=0;fillStyle=solid;" parent="1" vertex="1">
                    <mxGeometry x="439" y="161" width="120" height="60" as="geometry"/>
                </mxCell>
                <mxCell id="vDj8au7zf55BE4AIelzE-3" style="edgeStyle=orthogonalEdgeStyle;rounded=0;orthogonalLoop=1;jettySize=auto;html=1;entryX=0.25;entryY=1;entryDx=0;entryDy=0;fillColor=#d0cee2;strokeColor=#56517e;backgroundOutline=0;" parent="1" source="vDj8au7zf55BE4AIelzE-2" target="vDj8au7zf55BE4AIelzE-1" edge="1">
                    <mxGeometry relative="1" as="geometry"/>
                </mxCell>
                <mxCell id="vDj8au7zf55BE4AIelzE-8" style="edgeStyle=orthogonalEdgeStyle;rounded=0;orthogonalLoop=1;jettySize=auto;html=1;exitX=1;exitY=0.75;exitDx=0;exitDy=0;entryX=0.5;entryY=1;entryDx=0;entryDy=0;fillColor=#d0cee2;strokeColor=#56517e;backgroundOutline=0;" parent="1" source="vDj8au7zf55BE4AIelzE-2" target="vDj8au7zf55BE4AIelzE-5" edge="1">
                    <mxGeometry relative="1" as="geometry"/>
                </mxCell>
                <mxCell id="FS8cLIiwcNOSHCEOTmZc-13" style="edgeStyle=orthogonalEdgeStyle;rounded=0;orthogonalLoop=1;jettySize=auto;html=1;exitX=1;exitY=0.25;exitDx=0;exitDy=0;entryX=0.75;entryY=1;entryDx=0;entryDy=0;fillColor=#d0cee2;strokeColor=#56517e;backgroundOutline=0;dashed=1;" parent="1" source="vDj8au7zf55BE4AIelzE-2" target="vDj8au7zf55BE4AIelzE-6" edge="1">
                    <mxGeometry relative="1" as="geometry"/>
                </mxCell>
                <mxCell id="vDj8au7zf55BE4AIelzE-2" value="BASS" style="rounded=0;whiteSpace=wrap;html=1;backgroundOutline=0;fillStyle=solid;" parent="1" vertex="1">
                    <mxGeometry x="99" y="251" width="120" height="60" as="geometry"/>
                </mxCell>
                <mxCell id="vDj8au7zf55BE4AIelzE-4" value="UTILS" style="rounded=0;whiteSpace=wrap;html=1;backgroundOutline=0;fillStyle=solid;" parent="1" vertex="1">
                    <mxGeometry x="99" y="161" width="120" height="60" as="geometry"/>
                </mxCell>
                <mxCell id="vDj8au7zf55BE4AIelzE-5" value="MATH" style="rounded=0;whiteSpace=wrap;html=1;backgroundOutline=0;fillStyle=solid;" parent="1" vertex="1">
                    <mxGeometry x="609" y="161" width="120" height="60" as="geometry"/>
                </mxCell>
                <mxCell id="vDj8au7zf55BE4AIelzE-9" style="edgeStyle=orthogonalEdgeStyle;rounded=0;orthogonalLoop=1;jettySize=auto;html=1;exitX=0;exitY=0.5;exitDx=0;exitDy=0;fillColor=#a0522d;strokeColor=#6D1F00;backgroundOutline=0;" parent="1" source="vDj8au7zf55BE4AIelzE-6" target="vDj8au7zf55BE4AIelzE-4" edge="1">
                    <mxGeometry relative="1" as="geometry"/>
                </mxCell>
                <mxCell id="12" style="edgeStyle=none;rounded=0;html=1;exitX=0.25;exitY=1;exitDx=0;exitDy=0;entryX=0;entryY=0.5;entryDx=0;entryDy=0;dashed=1;fillColor=#1ba1e2;strokeColor=#006EAF;endArrow=none;endFill=0;startArrow=classic;startFill=1;" parent="1" source="vDj8au7zf55BE4AIelzE-6" target="vDj8au7zf55BE4AIelzE-14" edge="1">
                    <mxGeometry relative="1" as="geometry">
                        <mxPoint x="120" y="400" as="targetPoint"/>
                        <Array as="points">
                            <mxPoint x="320" y="400"/>
                            <mxPoint x="120" y="400"/>
                            <mxPoint x="120" y="435"/>
                        </Array>
                    </mxGeometry>
                </mxCell>
                <mxCell id="13" style="edgeStyle=none;rounded=0;html=1;exitX=0.25;exitY=1;exitDx=0;exitDy=0;entryX=0;entryY=0.5;entryDx=0;entryDy=0;dashed=1;fillColor=#1ba1e2;strokeColor=#006EAF;startArrow=classic;startFill=1;endArrow=none;endFill=0;" parent="1" source="vDj8au7zf55BE4AIelzE-6" target="5" edge="1">
                    <mxGeometry relative="1" as="geometry">
                        <Array as="points">
                            <mxPoint x="320" y="400"/>
                            <mxPoint x="120" y="400"/>
                            <mxPoint x="120" y="476"/>
                        </Array>
                    </mxGeometry>
                </mxCell>
                <mxCell id="14" style="edgeStyle=none;rounded=0;html=1;exitX=0.25;exitY=1;exitDx=0;exitDy=0;entryX=0;entryY=0.5;entryDx=0;entryDy=0;dashed=1;fillColor=#1ba1e2;strokeColor=#006EAF;startArrow=classic;startFill=1;endArrow=none;endFill=0;" parent="1" source="vDj8au7zf55BE4AIelzE-6" target="7" edge="1">
                    <mxGeometry relative="1" as="geometry">
                        <Array as="points">
                            <mxPoint x="320" y="400"/>
                            <mxPoint x="120" y="400"/>
                            <mxPoint x="120" y="515"/>
                        </Array>
                    </mxGeometry>
                </mxCell>
                <mxCell id="vDj8au7zf55BE4AIelzE-6" value="RESOURCES" style="rounded=0;whiteSpace=wrap;html=1;backgroundOutline=0;fillStyle=solid;" parent="1" vertex="1">
                    <mxGeometry x="289" y="161" width="120" height="60" as="geometry"/>
                </mxCell>
                <mxCell id="vDj8au7zf55BE4AIelzE-16" style="edgeStyle=orthogonalEdgeStyle;rounded=0;orthogonalLoop=1;jettySize=auto;html=1;exitX=0.75;exitY=0;exitDx=0;exitDy=0;entryX=0.75;entryY=1;entryDx=0;entryDy=0;fillColor=#e3c800;strokeColor=#B09500;backgroundOutline=0;" parent="1" source="vDj8au7zf55BE4AIelzE-11" target="vDj8au7zf55BE4AIelzE-5" edge="1">
                    <mxGeometry relative="1" as="geometry">
                        <Array as="points">
                            <mxPoint x="699" y="421"/>
                        </Array>
                    </mxGeometry>
                </mxCell>
                <mxCell id="vDj8au7zf55BE4AIelzE-17" style="edgeStyle=orthogonalEdgeStyle;rounded=0;orthogonalLoop=1;jettySize=auto;html=1;exitX=0.5;exitY=0;exitDx=0;exitDy=0;entryX=0.75;entryY=1;entryDx=0;entryDy=0;fillColor=#e3c800;strokeColor=#B09500;backgroundOutline=0;" parent="1" source="vDj8au7zf55BE4AIelzE-11" target="vDj8au7zf55BE4AIelzE-1" edge="1">
                    <mxGeometry relative="1" as="geometry"/>
                </mxCell>
                <mxCell id="FS8cLIiwcNOSHCEOTmZc-17" style="edgeStyle=orthogonalEdgeStyle;rounded=0;orthogonalLoop=1;jettySize=auto;html=1;exitX=0.25;exitY=0;exitDx=0;exitDy=0;fillColor=#e3c800;strokeColor=#B09500;backgroundOutline=0;dashed=1;" parent="1" source="vDj8au7zf55BE4AIelzE-11" target="vDj8au7zf55BE4AIelzE-6" edge="1">
                    <mxGeometry relative="1" as="geometry"/>
                </mxCell>
                <mxCell id="vDj8au7zf55BE4AIelzE-11" value="RENDER" style="whiteSpace=wrap;html=1;backgroundOutline=0;rounded=0;fillStyle=solid;" parent="1" vertex="1">
                    <mxGeometry x="309" y="446" width="120" height="60" as="geometry"/>
                </mxCell>
                <mxCell id="9" style="edgeStyle=none;html=1;entryX=0;entryY=0.5;entryDx=0;entryDy=0;rounded=0;fillColor=#1ba1e2;strokeColor=#006EAF;" parent="1" source="vDj8au7zf55BE4AIelzE-14" target="vDj8au7zf55BE4AIelzE-11" edge="1">
                    <mxGeometry relative="1" as="geometry">
                        <Array as="points">
                            <mxPoint x="280" y="435"/>
                            <mxPoint x="280" y="476"/>
                        </Array>
                    </mxGeometry>
                </mxCell>
                <mxCell id="vDj8au7zf55BE4AIelzE-14" value="UI" style="whiteSpace=wrap;html=1;backgroundOutline=0;rounded=0;fillStyle=solid;" parent="1" vertex="1">
                    <mxGeometry x="140" y="420" width="60" height="30" as="geometry"/>
                </mxCell>
                <mxCell id="29" style="edgeStyle=none;rounded=0;html=1;entryX=0.258;entryY=-0.017;entryDx=0;entryDy=0;entryPerimeter=0;startArrow=none;startFill=0;endArrow=classic;endFill=1;fillColor=#a20025;strokeColor=#6F0000;" edge="1" parent="1" source="2" target="vDj8au7zf55BE4AIelzE-5">
                    <mxGeometry relative="1" as="geometry">
                        <Array as="points">
                            <mxPoint x="640" y="40"/>
                        </Array>
                    </mxGeometry>
                </mxCell>
                <mxCell id="30" style="edgeStyle=none;rounded=0;html=1;startArrow=none;startFill=0;endArrow=classic;endFill=1;fillColor=#a20025;strokeColor=#6F0000;" edge="1" parent="1" source="2">
                    <mxGeometry relative="1" as="geometry">
                        <mxPoint x="500" y="160" as="targetPoint"/>
                        <Array as="points">
                            <mxPoint x="500" y="40"/>
                        </Array>
                    </mxGeometry>
                </mxCell>
                <mxCell id="2" value="3D PHYSICS" style="rounded=0;whiteSpace=wrap;html=1;backgroundOutline=0;fillStyle=solid;" parent="1" vertex="1">
                    <mxGeometry x="540" y="30" width="79" height="19" as="geometry"/>
                </mxCell>
                <mxCell id="10" style="edgeStyle=none;rounded=0;html=1;entryX=0;entryY=0.5;entryDx=0;entryDy=0;fillColor=#1ba1e2;strokeColor=#006EAF;" parent="1" source="5" target="vDj8au7zf55BE4AIelzE-11" edge="1">
                    <mxGeometry relative="1" as="geometry"/>
                </mxCell>
                <mxCell id="5" value="ASSIMP" style="whiteSpace=wrap;html=1;backgroundOutline=0;rounded=0;fillStyle=solid;" parent="1" vertex="1">
                    <mxGeometry x="140" y="461" width="60" height="30" as="geometry"/>
                </mxCell>
                <mxCell id="11" style="edgeStyle=none;rounded=0;html=1;entryX=0;entryY=0.5;entryDx=0;entryDy=0;fillColor=#1ba1e2;strokeColor=#006EAF;" parent="1" source="7" target="vDj8au7zf55BE4AIelzE-11" edge="1">
                    <mxGeometry relative="1" as="geometry">
                        <Array as="points">
                            <mxPoint x="280" y="515"/>
                            <mxPoint x="280" y="476"/>
                        </Array>
                    </mxGeometry>
                </mxCell>
                <mxCell id="7" value="WEBM" style="whiteSpace=wrap;html=1;backgroundOutline=0;rounded=0;fillStyle=solid;" parent="1" vertex="1">
                    <mxGeometry x="140" y="500" width="60" height="30" as="geometry"/>
                </mxCell>
                <mxCell id="24" style="edgeStyle=none;rounded=0;html=1;startArrow=none;startFill=0;endArrow=classic;endFill=1;fillColor=#a20025;strokeColor=#6F0000;" edge="1" parent="1" source="15">
                    <mxGeometry relative="1" as="geometry">
                        <mxPoint x="520" y="159.99999999999994" as="targetPoint"/>
                        <Array as="points">
                            <mxPoint x="580" y="120"/>
                            <mxPoint x="520" y="120"/>
                        </Array>
                    </mxGeometry>
                </mxCell>
                <mxCell id="25" style="edgeStyle=none;rounded=0;html=1;startArrow=none;startFill=0;endArrow=classic;endFill=1;fillColor=#a20025;strokeColor=#6F0000;" edge="1" parent="1" source="15">
                    <mxGeometry relative="1" as="geometry">
                        <mxPoint x="620" y="160" as="targetPoint"/>
                        <Array as="points">
                            <mxPoint x="580" y="120"/>
                            <mxPoint x="620" y="120"/>
                        </Array>
                    </mxGeometry>
                </mxCell>
                <mxCell id="15" value="2D PHYSICS" style="rounded=0;whiteSpace=wrap;html=1;backgroundOutline=0;fillStyle=solid;" vertex="1" parent="1">
                    <mxGeometry x="540" y="61" width="79" height="19" as="geometry"/>
                </mxCell>
            </root>
        </mxGraphModel>
    </diagram>
</mxfile>
